<?xml version="1.0" encoding="utf-8"?>
<!-- Generator: Adobe Illustrator 18.1.1, SVG Export Plug-In . SVG Version: 6.00 Build 0)  -->
<svg version="1.1" id="Layer_1" xmlns="http://www.w3.org/2000/svg" xmlns:xlink="http://www.w3.org/1999/xlink" x="0px" y="0px"
	 viewBox="0 0 300 300" enable-background="new 0 0 300 300" xml:space="preserve">
<g>
	<g>
		<path d="M150,189c-18.4,0-33.8-12.8-37.9-30H15.3C20,229.4,78.5,285,150,285c71.5,0,130-55.6,134.7-126h-96.8
			C183.8,176.2,168.4,189,150,189z"/>
		<path d="M150,111c18.4,0,33.8,12.8,37.9,30h96.8C280,70.6,221.5,15,150,15C78.5,15,20,70.6,15.3,141h96.8
			C116.2,123.8,131.6,111,150,111z"/>
	</g>
</g>
<circle cx="150" cy="150" r="21"/>
</svg>
